Coordinates
version=1
nRows=18
nColumns=13
inDegrees=yes

Units are S.I. units (second, meters, Newtons, ...)
If the header above contains a line with 'inDegrees', this indicates whether rotational values are in degrees (yes) or radians (no).

endheader
time	bJoint_3	seatpos	hipangle	kneeangle	footangle	lbackangle	uarmleft_out	uarmleft_trn	uarmleft_up	uarmright_out	uarmright_trn	uarmright_up
      2.96000000	      0.00000001	     -0.00329512	     93.58680458	      4.79862403	      8.38542861	    -40.30693047	     39.30037540	    -20.29837381	     68.39133027	     38.93641780	    -17.50266045	     70.36247018
      2.97000000	      0.00000001	     -0.00333278	     93.52782034	      4.90830252	      8.43612286	    -39.72666907	     38.84925413	    -21.71141168	     68.19550524	     38.59146786	    -18.66699342	     70.16679355
      2.98000000	      0.00000001	     -0.00335000	     93.50130171	      4.95761591	      8.45891762	    -38.95111031	     38.41821627	    -22.94309524	     68.18214646	     38.16771727	    -20.02288869	     70.03337646
      2.99000000	      0.00000001	     -0.00335718	     93.49031461	      4.97804783	      8.46836245	    -38.17366288	     37.94568893	    -24.22097352	     67.78361737	     37.60565626	    -21.34250552	     69.83941684
      3.00000000	      0.00000001	     -0.00338359	     93.45029387	      5.05247444	      8.50276831	    -37.38962085	     37.63740609	    -25.64180540	     67.69206154	     37.26091416	    -22.70535898	     69.72486176
      3.01000000	      0.00000001	     -0.00349323	     93.29012318	      5.35038943	      8.64051260	    -36.65645373	     37.18696093	    -26.91811365	     67.60840301	     36.93142312	    -23.98725422	     69.42591567
      3.02000000	      0.00000001	     -0.00351781	     93.25543636	      5.41491592	      8.67035228	    -35.86075636	     36.91266252	    -28.28884411	     67.28658736	     36.56819236	    -25.34879271	     69.29544956
      3.03000000	      0.00000001	     -0.00364250	     93.08547098	      5.73114475	      8.81661573	    -35.11614036	     36.31804193	    -29.52235496	     67.12486442	     36.01026324	    -26.59714536	     69.14241663
      3.04000000	      0.00000001	     -0.00380889	     92.87234996	      6.12778168	      9.00013163	    -34.35191057	     35.80836592	    -30.76838807	     66.76196623	     35.53021823	    -27.78287621	     68.78040880
      3.05000000	      0.00000001	     -0.00393592	     92.71853904	      6.41411648	      9.13265552	    -33.53892682	     35.30999104	    -32.09288114	     66.57938427	     35.01472302	    -29.15507505	     68.57999238
      3.06000000	      0.00000000	     -0.00411792	     92.50948857	      6.80339148	      9.31288005	    -32.71365665	     34.98211684	    -33.32562046	     66.34933654	     34.71124369	    -30.38479388	     68.34164580
      3.07000000	      0.00000000	     -0.00466998	     91.93841712	      7.86740925	      9.80582637	    -31.92742285	     34.55892411	    -34.83952749	     66.11407027	     34.31354902	    -31.74980439	     68.19931889
      3.08000000	      0.00000000	     -0.00542604	     91.26368896	      9.12572007	     10.38940903	    -31.13960192	     34.22736661	    -36.08419020	     65.90518496	     33.94289353	    -33.19214835	     67.97447602
      3.09000000	      0.00000000	     -0.00622572	     90.63952323	     10.29084408	     10.93036731	    -30.29049335	     33.81505284	    -37.49969864	     65.74192756	     33.62485681	    -34.40101087	     67.81013364
      3.10000000	      0.00000000	     -0.00754512	     89.74187155	     11.96832733	     11.71019888	    -29.56454963	     33.48750314	    -38.77080375	     65.54094100	     33.26015766	    -35.71352130	     67.68337079
      3.11000000	      0.00000000	     -0.00907057	     88.84095786	     13.65406926	     12.49502712	    -28.78360053	     33.07453521	    -40.20021231	     65.39489771	     32.93813931	    -36.93669878	     67.53749840
      3.12000000	      0.00000000	     -0.01120596	     87.74151916	     15.71417600	     13.45569516	    -27.99099218	     32.73553986	    -41.31891128	     65.31405531	     32.53333649	    -38.32099788	     67.45151923
      3.13000000	      0.00000000	     -0.01291318	     86.95736693	     17.18542529	     14.14279222	    -27.20386226	     32.32300363	    -42.76427619	     65.19372686	     32.23955954	    -39.48463671	     67.31958446
